<?xml version="1.0" standalone="no"?>
<!DOCTYPE svg PUBLIC "-//W3C//DTD SVG 20010904//EN"
 "http://www.w3.org/TR/2001/REC-SVG-20010904/DTD/svg10.dtd">
<svg version="1.0" xmlns="http://www.w3.org/2000/svg"
 width="1036.000000pt" height="1280.000000pt" viewBox="0 0 1036.000000 1280.000000"
 preserveAspectRatio="xMidYMid meet">

<g transform="translate(0.000000,1280.000000) scale(0.100000,-0.100000)"
fill="#000000" stroke="none">
<path d="M0 6400 l0 -6400 5180 0 5180 0 0 6400 0 6400 -5180 0 -5180 0 0
-6400z m5552 5941 c197 -198 382 -379 411 -404 53 -45 3010 -3003 3836 -3837
267 -269 451 -462 451 -473 0 -27 -628 -647 -656 -647 -11 0 -34 15 -51 33
-17 17 -283 283 -591 589 -481 477 -567 558 -598 564 -22 4 -40 2 -47 -5 -16
-16 -24 -693 -26 -2077 0 -589 -4 -1483 -8 -1988 l-6 -916 -84 -85 c-47 -47
-96 -93 -109 -101 -13 -9 -24 -20 -24 -23 0 -9 -131 -141 -140 -141 -3 0 -19
-18 -36 -40 -16 -22 -33 -40 -37 -40 -4 0 -69 -62 -145 -138 -76 -76 -145
-141 -155 -145 -9 -3 -17 -11 -17 -17 0 -12 -158 -168 -165 -162 -2 2 -4 162
-4 356 -1 193 -4 937 -7 1653 l-7 1302 -28 31 -28 30 -786 0 c-677 0 -790 -2
-815 -15 -29 -15 -34 -25 -44 -80 -3 -16 -8 -1013 -12 -2215 -3 -1202 -10
-2232 -14 -2290 l-7 -105 -2 83 -1 82 -430 0 -430 0 0 -80 c0 -44 -4 -80 -9
-80 -17 0 -23 503 -29 2560 -7 1995 -8 2076 -25 2102 -12 17 -32 30 -50 33
-18 3 -379 5 -803 3 -742 -3 -773 -4 -793 -22 -11 -10 -25 -35 -31 -55 -6 -23
-12 -601 -15 -1566 -6 -1494 -8 -1695 -25 -1695 -4 0 -24 18 -43 39 -19 22
-38 37 -41 33 -3 -3 -6 2 -6 11 0 10 -4 17 -8 17 -5 0 -187 177 -406 393
l-397 393 -5 1964 c-2 1081 -6 2187 -8 2459 -5 465 -6 495 -24 513 -17 17 -21
17 -53 4 -21 -9 -245 -225 -612 -591 -481 -479 -583 -576 -603 -573 -28 3
-638 604 -649 639 -8 25 -236 -206 2936 2972 1651 1653 2109 2107 2128 2107
18 0 112 -88 383 -359z"/>
<path d="M5669 10783 c-18 -20 -26 -857 -28 -2771 -1 -1439 -3 -1383 51 -1414
19 -10 173 -13 805 -13 l783 0 27 28 28 27 -3 1253 c-3 834 -7 1264 -14 1289
-9 30 -153 179 -783 808 -424 424 -786 780 -804 791 -38 23 -45 24 -62 2z"/>
<path d="M4600 10764 c-14 -10 -304 -295 -645 -635 -341 -340 -633 -628 -650
-641 -16 -12 -87 -78 -158 -147 -94 -93 -130 -135 -137 -161 -5 -20 -10 -573
-11 -1265 -2 -954 0 -1238 9 -1266 23 -67 -13 -64 829 -67 836 -3 821 -4 844
55 8 20 10 585 6 2054 -5 2135 -4 2078 -47 2087 -8 1 -26 -5 -40 -14z"/>
</g>
</svg>
