<?xml version="1.0" standalone="no"?>
<!DOCTYPE svg PUBLIC "-//W3C//DTD SVG 20010904//EN"
 "http://www.w3.org/TR/2001/REC-SVG-20010904/DTD/svg10.dtd">
<svg version="1.0" xmlns="http://www.w3.org/2000/svg"
 width="1090.000000pt" height="1120.000000pt" viewBox="0 0 1090.000000 1120.000000"
 preserveAspectRatio="xMidYMid meet">

<g transform="translate(0.000000,1120.000000) scale(0.100000,-0.100000)"
fill="#000000" stroke="none">
<path d="M3798 8493 c7 -3 16 -2 19 1 4 3 -2 6 -13 5 -11 0 -14 -3 -6 -6z"/>
<path d="M3962 8452 c9 -2 20 -12 23 -22 7 -22 31 -17 45 10 9 16 5 18 -38 17
-26 0 -39 -3 -30 -5z"/>
<path d="M4058 8453 c7 -3 16 -2 19 1 4 3 -2 6 -13 5 -11 0 -14 -3 -6 -6z"/>
<path d="M3865 8410 c-25 -11 1 -11 35 0 20 6 21 8 5 8 -11 0 -29 -3 -40 -8z"/>
<path d="M3768 8387 c-16 -6 -28 -17 -28 -25 0 -13 3 -12 18 1 10 10 24 17 30
17 7 0 12 5 12 10 0 6 -1 10 -2 9 -2 -1 -15 -6 -30 -12z"/>
<path d="M3677 8363 c-16 -8 -27 -17 -24 -19 7 -8 57 15 57 26 0 5 -1 10 -2 9
-2 -1 -16 -8 -31 -16z"/>
<path d="M3585 8340 c-3 -5 -1 -10 4 -10 6 0 11 5 11 10 0 6 -2 10 -4 10 -3 0
-8 -4 -11 -10z"/>
<path d="M3540 8326 c0 -2 7 -7 16 -10 8 -3 12 -2 9 4 -6 10 -25 14 -25 6z"/>
<path d="M3716 8322 c-3 -5 1 -9 9 -9 8 0 12 4 9 9 -3 4 -7 8 -9 8 -2 0 -6 -4
-9 -8z"/>
<path d="M3508 8313 c7 -3 16 -2 19 1 4 3 -2 6 -13 5 -11 0 -14 -3 -6 -6z"/>
<path d="M3390 8288 c-13 -11 -17 -19 -10 -23 6 -4 17 0 23 8 15 18 55 28 63
16 8 -13 21 -11 21 4 0 19 -71 16 -97 -5z"/>
<path d="M3662 8280 c0 -14 2 -19 5 -12 2 6 2 18 0 25 -3 6 -5 1 -5 -13z"/>
<path d="M3686 8287 c3 -10 9 -15 12 -12 3 3 0 11 -7 18 -10 9 -11 8 -5 -6z"/>
<path d="M3280 8256 c0 -2 7 -6 15 -10 8 -3 15 -1 15 4 0 6 -7 10 -15 10 -8 0
-15 -2 -15 -4z"/>
<path d="M3226 8242 c-3 -5 -21 -7 -40 -6 -36 3 -49 -9 -21 -20 8 -3 15 -1 15
4 0 12 27 13 32 2 2 -4 11 0 21 10 9 10 13 18 8 18 -6 0 -12 -4 -15 -8z"/>
<path d="M3666 8227 c3 -10 9 -15 12 -12 3 3 0 11 -7 18 -10 9 -11 8 -5 -6z"/>
<path d="M5410 8183 c0 -27 -3 -99 -7 -160 -5 -101 -4 -113 10 -113 10 0 18 1
18 3 1 1 5 58 8 127 l6 125 93 -132 c51 -73 99 -133 106 -133 14 0 26 108 26
243 0 58 -3 77 -14 77 -14 0 -26 -79 -26 -181 0 -33 -3 -59 -7 -59 -5 0 -28
30 -53 67 -134 198 -160 220 -160 136z"/>
<path d="M3113 8205 c0 -8 4 -12 9 -9 4 3 8 9 8 15 0 5 -4 9 -8 9 -5 0 -9 -7
-9 -15z"/>
<path d="M3187 8197 c-3 -8 1 -14 8 -14 7 0 11 6 8 14 -3 7 -6 13 -8 13 -2 0
-5 -6 -8 -13z"/>
<path d="M5060 8192 c-19 -9 -45 -33 -58 -52 -32 -48 -29 -149 7 -196 63 -86
197 -81 259 10 27 40 30 122 6 173 -36 75 -135 105 -214 65z m124 -26 c55 -23
84 -119 56 -190 -12 -33 -58 -56 -111 -56 -33 0 -47 6 -75 34 -31 31 -34 39
-34 93 0 67 17 98 64 119 40 17 59 17 100 0z"/>
<path d="M5838 8175 c-50 -28 -63 -85 -28 -122 10 -12 37 -31 59 -44 43 -24
56 -47 46 -79 -14 -45 -81 -49 -124 -8 -14 13 -26 17 -32 11 -29 -29 55 -80
117 -70 59 10 98 73 76 122 -6 13 -36 40 -66 59 -57 37 -71 67 -44 94 17 17
69 15 96 -4 22 -15 42 -12 42 6 0 15 -42 38 -80 44 -22 4 -45 0 -62 -9z"/>
<path d="M3530 8140 c0 -5 5 -10 11 -10 5 0 7 5 4 10 -3 6 -8 10 -11 10 -2 0
-4 -4 -4 -10z"/>
<path d="M3560 8139 c0 -5 5 -7 10 -4 6 3 10 8 10 11 0 2 -4 4 -10 4 -5 0 -10
-5 -10 -11z"/>
<path d="M4747 8136 c-95 -34 -132 -126 -88 -221 28 -63 73 -95 132 -95 55 0
117 27 136 59 19 32 -3 36 -37 7 -70 -58 -151 -41 -190 39 -31 63 -23 119 20
158 28 25 39 28 83 26 41 -2 53 0 55 13 5 28 -51 35 -111 14z"/>
<path d="M3500 8132 c0 -7 -6 -10 -12 -7 -7 4 -4 -1 6 -9 24 -19 32 -14 17 11
-6 11 -11 13 -11 5z"/>
<path d="M6090 8126 c0 -8 21 -21 49 -31 l49 -16 -39 -125 c-21 -69 -42 -130
-45 -136 -6 -10 12 -28 28 -28 4 0 26 60 49 133 23 72 43 135 46 139 2 4 20 1
40 -7 44 -19 63 -19 63 -1 0 9 -39 27 -111 50 -127 41 -129 41 -129 22z"/>
<path d="M3429 8113 c-13 -16 -12 -17 3 -5 9 8 23 10 29 6 8 -4 9 -3 5 4 -10
17 -21 15 -37 -5z"/>
<path d="M3052 8100 c0 -14 2 -19 5 -12 2 6 2 18 0 25 -3 6 -5 1 -5 -13z"/>
<path d="M3350 8106 c0 -2 7 -7 16 -10 8 -3 12 -2 9 4 -6 10 -25 14 -25 6z"/>
<path d="M3490 8089 c0 -6 -8 -9 -20 -6 -11 3 -23 1 -26 -4 -3 -5 8 -9 25 -9
31 0 49 14 31 25 -5 3 -10 1 -10 -6z"/>
<path d="M3300 8080 c-13 -8 -12 -10 3 -10 9 0 17 5 17 10 0 12 -1 12 -20 0z"/>
<path d="M3415 8081 c-3 -5 -1 -12 5 -16 5 -3 10 1 10 9 0 18 -6 21 -15 7z"/>
<path d="M3207 8067 c-3 -9 -2 -17 2 -17 5 0 11 -7 14 -15 5 -11 -2 -13 -28
-11 -19 1 -38 5 -41 9 -4 3 -15 2 -25 -4 -13 -6 -19 -6 -19 1 0 21 -30 9 -31
-12 l0 -23 -10 23 c-5 13 -7 27 -4 32 3 4 -4 10 -15 13 -11 3 -20 1 -20 -4 0
-5 5 -9 10 -9 6 0 8 -11 4 -26 -4 -17 -2 -29 7 -36 12 -8 11 -9 -1 -6 -8 3
-19 23 -24 46 -10 42 -19 51 -31 32 -5 -8 -12 -7 -23 2 -16 12 -16 11 -2 -7 8
-11 22 -27 32 -35 17 -14 15 -16 -27 -15 -26 1 -50 -4 -57 -12 -7 -9 -7 -13 1
-13 6 0 11 4 11 9 0 5 15 2 33 -7 27 -14 29 -17 12 -20 -11 -2 -24 -8 -30 -13
-13 -13 -35 -11 -35 4 0 7 -9 18 -19 24 -16 10 -20 9 -25 -3 -3 -8 1 -17 10
-21 8 -3 13 -11 10 -18 -3 -10 5 -10 36 -3 22 5 48 12 57 17 9 5 36 11 61 15
24 4 49 11 56 17 7 5 16 9 20 8 27 -5 54 2 48 12 -3 6 -15 8 -27 5 -14 -3 -17
-2 -9 6 6 6 20 7 33 2 13 -4 27 -7 31 -6 4 1 21 3 38 4 25 2 30 6 28 23 -2 11
-10 20 -18 20 -8 0 -18 6 -21 14 -4 12 -7 11 -12 -2z m-197 -27 c0 -5 -2 -10
-4 -10 -3 0 -8 5 -11 10 -3 6 -1 10 4 10 6 0 11 -4 11 -10z m94 -26 c3 -8 2
-12 -4 -9 -6 3 -10 10 -10 16 0 14 7 11 14 -7z"/>
<path d="M3181 8054 c0 -11 3 -14 6 -6 3 7 2 16 -1 19 -3 4 -6 -2 -5 -13z"/>
<path d="M3318 8043 c6 -2 18 -2 25 0 6 3 1 5 -13 5 -14 0 -19 -2 -12 -5z"/>
<path d="M3278 8033 c7 -3 16 -2 19 1 4 3 -2 6 -13 5 -11 0 -14 -3 -6 -6z"/>
<path d="M6385 7876 c-36 -74 -65 -139 -65 -144 0 -5 7 -12 15 -16 11 -4 23
10 42 52 15 31 27 58 28 60 2 1 14 -2 28 -9 22 -10 26 -21 37 -90 11 -71 31
-112 47 -96 5 6 -10 104 -23 150 -4 14 1 17 28 17 78 1 116 90 61 142 -29 26
-104 68 -123 68 -6 0 -40 -60 -75 -134z m134 74 c53 -27 67 -66 34 -102 -23
-26 -95 -22 -131 7 -3 3 51 115 55 115 2 0 21 -9 42 -20z"/>
<path d="M2830 7970 c0 -5 5 -10 11 -10 5 0 7 5 4 10 -3 6 -8 10 -11 10 -2 0
-4 -4 -4 -10z"/>
<path d="M2799 7935 c0 0 -2 -7 -4 -16 -2 -12 3 -15 21 -11 13 2 24 9 24 14 0
6 7 7 16 4 9 -3 12 -2 9 4 -5 7 -54 11 -66 5z"/>
<path d="M4240 7933 c-38 -13 -140 -68 -140 -76 0 -11 140 -277 146 -277 14 0
123 62 146 83 59 55 58 152 -3 222 -38 43 -103 64 -149 48z m113 -72 c39 -44
54 -95 40 -138 -9 -28 -92 -93 -118 -93 -12 0 -125 197 -125 218 0 16 85 51
126 51 36 1 46 -4 77 -38z"/>
<path d="M2715 7831 c-3 -11 -22 -34 -42 -51 -19 -17 -36 -42 -37 -54 0 -14
-6 -22 -13 -19 -7 3 -13 1 -13 -5 0 -10 -25 -43 -67 -88 -22 -23 -22 -24 -2
-24 12 0 17 -4 14 -11 -4 -6 -13 -8 -21 -5 -18 7 -18 -4 2 -32 15 -21 14 -22
-19 -22 -41 0 -46 -9 -43 -76 2 -27 1 -41 -1 -31 -3 9 -9 15 -14 11 -5 -3 -6
-10 -3 -16 4 -7 0 -7 -12 0 -20 10 -44 6 -44 -7 0 -4 14 -8 30 -8 17 0 35 -4
41 -10 14 -14 0 -43 -21 -43 -18 0 -33 -22 -35 -50 0 -8 -6 -14 -13 -12 -7 1
-12 -5 -12 -14 0 -14 3 -14 15 -4 12 10 19 10 27 2 17 -17 26 -15 31 6 4 16 5
16 6 0 0 -10 7 -18 15 -18 8 0 16 -4 18 -9 2 -5 10 -2 18 7 13 14 12 15 -3 9
-9 -3 -17 -2 -17 3 0 12 -1 12 125 14 76 2 99 5 97 15 -3 17 20 9 26 -9 3 -7
0 -10 -6 -6 -6 3 -13 2 -17 -4 -4 -6 -11 -8 -16 -5 -5 4 -9 -1 -9 -10 0 -9 -5
-13 -10 -10 -6 4 -8 10 -5 14 2 5 -8 6 -22 3 -26 -5 -26 -5 -5 -13 12 -5 22
-16 22 -26 0 -15 3 -14 16 5 20 28 33 28 28 0 -2 -13 -2 -17 2 -10 11 24 25 0
19 -36 -4 -25 -3 -32 3 -22 15 24 11 132 -6 165 -9 17 -17 44 -18 60 -2 25 -1
26 6 10 5 -11 9 -16 9 -11 1 5 7 4 14 -1 13 -11 73 -11 83 0 4 4 -4 8 -17 8
-13 1 -33 2 -45 3 -24 1 -58 32 -50 45 4 5 1 11 -6 13 -8 3 -9 11 -3 24 17 37
13 54 -10 54 -27 0 -36 -19 -29 -63 5 -30 4 -29 -10 8 -25 65 -22 77 19 69 24
-4 35 -3 35 6 0 7 -7 10 -15 7 -8 -4 -17 -2 -20 3 -3 5 9 10 27 12 28 3 33 8
39 38 5 20 4 36 -2 38 -11 5 -12 29 0 34 4 2 10 27 13 55 4 40 1 56 -10 65
-13 11 -15 10 -9 -4 3 -10 2 -18 -3 -18 -10 0 -14 20 -12 53 2 23 -5 22 -13
-2z m25 -103 c0 -17 -3 -28 -7 -24 -5 4 -8 20 -8 36 0 15 3 26 8 23 4 -2 7
-18 7 -35z m-13 -80 c-3 -7 -5 -2 -5 12 0 14 2 19 5 13 2 -7 2 -19 0 -25z
m-103 -14 c9 -3 16 -14 15 -23 0 -10 -2 -11 -6 -3 -2 6 -14 12 -24 12 -11 0
-17 5 -14 10 7 12 8 12 29 4z m113 -39 c-4 -8 -12 -15 -19 -14 -10 0 -10 2 0
6 6 2 12 12 12 21 0 8 3 13 6 9 4 -3 4 -13 1 -22z m-147 -25 c0 -5 -2 -10 -4
-10 -3 0 -8 5 -11 10 -3 6 -1 10 4 10 6 0 11 -4 11 -10z m-23 -62 c-3 -7 -5
-2 -5 12 0 14 2 19 5 13 2 -7 2 -19 0 -25z m63 12 c0 -11 -7 -20 -15 -20 -8 0
-15 9 -15 20 0 11 7 20 15 20 8 0 15 -9 15 -20z m67 -67 c-3 -10 -5 -2 -5 17
0 19 2 27 5 18 2 -10 2 -26 0 -35z m-107 17 c0 -5 -5 -10 -11 -10 -5 0 -7 5
-4 10 3 6 8 10 11 10 2 0 4 -4 4 -10z m-130 -155 c-7 -9 -15 -13 -17 -11 -7 7
7 26 19 26 6 0 6 -6 -2 -15z"/>
<path d="M6752 7823 c-94 -132 -112 -166 -112 -211 0 -40 5 -50 40 -84 34 -31
48 -38 82 -38 57 0 97 33 166 137 44 67 53 86 42 93 -19 12 -19 12 -85 -85
-64 -94 -77 -105 -129 -105 -25 0 -40 7 -55 26 -35 44 -27 79 40 180 55 83 65
114 39 114 -5 0 -17 -12 -28 -27z"/>
<path d="M3864 7695 c-8 -20 174 -267 190 -257 7 4 40 27 74 51 48 34 60 47
51 57 -9 11 -22 5 -64 -26 -30 -22 -56 -40 -59 -40 -2 0 -41 52 -87 115 -45
63 -86 115 -91 115 -5 0 -11 -7 -14 -15z"/>
<path d="M3706 7581 c-5 -8 88 -123 174 -214 30 -32 38 -36 48 -25 9 12 -8 37
-90 131 -95 110 -119 129 -132 108z"/>
<path d="M7040 7552 c-47 -25 -100 -104 -100 -148 0 -54 25 -100 68 -129 43
-28 92 -37 99 -18 3 7 -12 16 -36 23 -55 15 -91 59 -91 114 0 36 7 51 38 86
31 35 44 43 82 47 56 5 105 -22 126 -72 14 -34 28 -44 38 -27 2 4 -4 26 -14
48 -34 77 -139 115 -210 76z"/>
<path d="M2842 7460 c0 -19 2 -27 5 -17 2 9 2 25 0 35 -3 9 -5 1 -5 -18z"/>
<path d="M3567 7448 c-2 -7 36 -51 85 -98 74 -71 88 -90 88 -116 0 -47 -39
-84 -88 -84 -35 0 -49 9 -123 75 -46 41 -88 75 -92 75 -4 0 -10 -6 -13 -14 -5
-14 43 -63 134 -140 36 -29 52 -36 88 -36 36 0 51 6 83 35 43 40 57 84 41 131
-10 30 -169 184 -188 184 -6 0 -12 -6 -15 -12z"/>
<path d="M7326 7371 c-6 -8 35 -66 57 -82 5 -3 -16 -26 -45 -50 -29 -24 -66
-56 -83 -70 -16 -15 -43 -38 -59 -51 -26 -22 -30 -48 -7 -48 4 0 56 41 116 90
l110 91 33 -41 c30 -36 52 -44 52 -20 0 13 -149 190 -160 190 -5 0 -11 -4 -14
-9z"/>
<path d="M2770 7281 c0 -6 4 -12 8 -15 5 -3 9 1 9 9 0 8 -4 15 -9 15 -4 0 -8
-4 -8 -9z"/>
<path d="M2585 7260 c3 -5 11 -10 16 -10 6 0 7 5 4 10 -3 6 -11 10 -16 10 -6
0 -7 -4 -4 -10z"/>
<path d="M2548 7253 c7 -3 16 -2 19 1 4 3 -2 6 -13 5 -11 0 -14 -3 -6 -6z"/>
<path d="M2511 7221 c-7 -5 -12 -14 -10 -20 2 -6 10 -2 17 9 14 22 13 23 -7
11z"/>
<path d="M2441 7178 c-1 -28 12 -37 24 -18 3 6 2 10 -4 10 -5 0 -12 8 -14 18
-3 10 -5 6 -6 -10z"/>
<path d="M2684 7182 c3 -15 -1 -25 -10 -29 -8 -3 -14 -10 -14 -16 0 -6 10 -2
21 10 18 17 19 24 9 39 -10 17 -11 17 -6 -4z"/>
<path d="M2696 7137 c-11 -8 -17 -20 -14 -27 2 -8 10 -3 21 14 20 30 19 32 -7
13z"/>
<path d="M2440 7120 c0 -11 2 -20 4 -20 2 0 6 9 9 20 3 11 1 20 -4 20 -5 0 -9
-9 -9 -20z"/>
<path d="M2488 7133 c7 -3 16 -2 19 1 4 3 -2 6 -13 5 -11 0 -14 -3 -6 -6z"/>
<path d="M2545 7130 c28 -12 37 -12 30 0 -3 6 -16 10 -28 9 -21 0 -21 -1 -2
-9z"/>
<path d="M3304 7106 c-32 -23 -99 -125 -88 -135 12 -11 252 -171 257 -171 2 0
21 25 42 55 51 75 58 133 21 170 -27 27 -48 29 -96 10 -12 -4 -16 2 -18 22 -4
54 -72 81 -118 49z m84 -38 c23 -23 12 -78 -25 -120 -14 -15 -18 -15 -59 10
-24 15 -44 32 -44 38 0 12 37 64 55 76 16 12 60 9 73 -4z m127 -78 c12 -13 15
-27 11 -45 -7 -27 -47 -95 -56 -95 -11 1 -84 56 -87 66 -2 6 10 29 27 52 34
48 74 56 105 22z"/>
<path d="M2442 7065 c0 -16 2 -22 5 -12 2 9 2 23 0 30 -3 6 -5 -1 -5 -18z"/>
<path d="M2645 7080 c3 -5 8 -10 11 -10 2 0 4 5 4 10 0 6 -5 10 -11 10 -5 0
-7 -4 -4 -10z"/>
<path d="M2501 7064 c0 -11 3 -14 6 -6 3 7 2 16 -1 19 -3 4 -6 -2 -5 -13z"/>
<path d="M7433 6997 c-116 -78 -136 -98 -113 -112 13 -8 272 165 267 179 -8
24 -37 11 -154 -67z"/>
<path d="M2683 7055 c0 -8 4 -12 9 -9 5 3 6 10 3 15 -9 13 -12 11 -12 -6z"/>
<path d="M2502 7010 c0 -14 2 -19 5 -12 2 6 2 18 0 25 -3 6 -5 1 -5 -13z"/>
<path d="M2547 6998 c-3 -8 4 -13 18 -13 14 0 21 5 18 13 -3 6 -11 12 -18 12
-7 0 -15 -6 -18 -12z"/>
<path d="M2441 6946 c-1 -24 1 -27 14 -16 16 14 21 25 6 15 -5 -3 -12 3 -14
12 -3 11 -5 6 -6 -11z"/>
<path d="M2481 6929 c-43 -44 -52 -73 -25 -83 14 -5 15 -4 4 9 -9 11 -9 15 -1
15 7 0 9 5 6 10 -8 14 14 42 27 34 5 -3 6 -14 3 -24 -7 -22 6 -32 25 -19 12 7
11 9 -5 9 -15 0 -16 3 -7 9 11 6 10 11 -3 25 -9 9 -12 16 -6 16 6 0 15 9 21
20 16 29 7 25 -39 -21z"/>
<path d="M2600 6960 c-8 -5 -10 -10 -5 -10 6 0 17 5 25 10 8 5 11 10 5 10 -5
0 -17 -5 -25 -10z"/>
<path d="M7532 6869 c-57 -28 -92 -81 -92 -137 0 -136 136 -207 254 -132 81
52 99 149 42 225 -52 67 -125 83 -204 44z m164 -53 c29 -29 34 -41 34 -79 0
-76 -58 -127 -145 -127 -39 0 -52 5 -75 30 -55 59 -47 131 22 181 60 43 118
41 164 -5z"/>
<path d="M2542 6855 c0 -16 2 -22 5 -12 2 9 2 23 0 30 -3 6 -5 -1 -5 -18z"/>
<path d="M2500 6825 c0 -8 -5 -15 -11 -15 -5 0 -7 -4 -4 -10 3 -5 1 -10 -6
-10 -10 0 -10 -3 -1 -12 15 -15 16 -32 2 -23 -5 3 -10 -1 -10 -9 0 -9 4 -16 9
-16 16 0 23 -40 11 -55 -10 -12 -10 -15 0 -15 8 0 10 -9 6 -27 -5 -23 -4 -25
5 -10 6 10 8 25 5 33 -3 9 -1 24 4 35 7 13 7 19 0 19 -17 0 -11 20 8 27 9 4
26 15 37 25 19 18 19 19 -24 13 -32 -4 -41 -2 -38 7 2 7 9 12 14 11 6 -1 8 9
5 22 -5 28 -12 33 -12 10z"/>
<path d="M3145 6796 c-58 -26 -95 -85 -95 -152 0 -120 159 -199 264 -131 37
25 69 100 64 151 -12 106 -135 175 -233 132z m120 -45 c58 -27 78 -53 78 -105
0 -51 -28 -98 -72 -115 -39 -17 -101 0 -146 40 -31 27 -35 37 -35 79 0 99 79
145 175 101z"/>
<path d="M2430 6721 c0 -33 5 -63 11 -67 8 -4 7 -9 -2 -15 -11 -7 -10 -9 5 -9
13 0 16 5 11 18 -11 26 -14 92 -4 86 5 -3 9 2 9 11 0 9 -4 13 -10 10 -6 -3 -7
1 -4 9 3 9 1 16 -5 16 -7 0 -11 -23 -11 -59z"/>
<path d="M2433 6541 c0 -63 2 -77 12 -68 7 7 10 14 6 17 -9 7 -7 83 2 98 5 7
3 12 -5 12 -9 0 -9 3 2 10 13 8 13 10 -1 10 -14 0 -16 -13 -16 -79z"/>
<path d="M4360 6580 c-25 -5 -62 -12 -83 -16 -20 -3 -40 -10 -43 -15 -3 -5
-14 -9 -25 -9 -11 0 -52 -17 -91 -37 -87 -47 -170 -134 -212 -223 -26 -56 -31
-79 -34 -167 -4 -83 0 -115 17 -171 55 -181 212 -318 536 -467 72 -33 132 -62
135 -65 3 -3 39 -23 80 -44 207 -108 361 -242 425 -368 29 -58 35 -82 35 -133
0 -51 -5 -69 -29 -106 -53 -80 -99 -126 -153 -152 -29 -15 -45 -27 -35 -27 10
0 48 16 86 34 156 79 233 214 232 406 0 77 -25 192 -41 198 -6 2 -10 10 -10
18 0 36 -109 164 -186 220 -47 34 -218 132 -265 152 -24 11 -79 36 -122 56
-43 20 -81 36 -85 36 -3 0 -38 19 -76 41 -287 168 -445 331 -463 477 -16 140
98 260 303 321 84 25 184 27 281 7 236 -50 404 -174 555 -408 35 -53 66 -97
71 -98 4 0 7 58 7 128 0 127 0 129 -31 175 -17 26 -47 60 -67 76 -69 54 -214
123 -312 148 -66 17 -337 25 -400 13z"/>
<path d="M5410 5546 c0 -802 3 -1015 13 -1018 6 -2 54 -3 106 -3 l94 0 4 85
c10 219 61 536 105 660 70 197 123 275 228 334 25 14 38 26 29 26 -19 0 -76
-27 -84 -41 -4 -5 -13 -9 -21 -9 -47 0 164 301 412 585 142 163 277 275 417
347 l92 48 -213 0 -213 0 17 -32 c33 -65 -2 -181 -94 -311 -35 -50 -84 -112
-189 -242 -243 -301 -392 -599 -460 -923 -9 -40 -19 -70 -22 -66 -3 3 -6 153
-6 332 0 180 -1 533 -2 785 l-3 457 -105 0 -105 0 0 -1014z"/>
<path d="M7810 6514 c-19 -7 -81 -27 -137 -44 -83 -25 -103 -35 -103 -50 0
-21 13 -18 168 34 39 14 72 22 72 18 0 -4 -39 -61 -85 -127 -72 -102 -99 -155
-81 -155 7 0 301 92 304 95 1 1 0 9 -3 17 -5 13 -24 9 -123 -22 -64 -20 -119
-36 -120 -34 -2 1 37 60 87 129 50 70 91 133 91 141 0 17 -24 17 -70 -2z"/>
<path d="M2431 6434 c0 -11 3 -14 6 -6 3 7 2 16 -1 19 -3 4 -6 -2 -5 -13z"/>
<path d="M2955 6438 c-18 -56 -45 -152 -45 -163 0 -7 10 -15 23 -17 12 -3 77
-22 144 -42 67 -20 126 -36 131 -36 10 0 65 181 57 188 -14 14 -32 -14 -49
-72 -20 -72 -23 -74 -87 -54 -44 13 -44 14 -24 82 8 27 13 51 10 54 -13 13
-32 -12 -44 -57 -7 -28 -17 -51 -22 -51 -21 0 -99 23 -99 29 0 3 9 38 20 76
11 38 20 71 20 72 0 10 -31 1 -35 -9z"/>
<path d="M8610 6339 c0 -5 5 -7 10 -4 6 3 10 8 10 11 0 2 -4 4 -10 4 -5 0 -10
-5 -10 -11z"/>
<path d="M7869 6122 c-29 -15 -35 -24 -45 -74 -14 -72 -28 -90 -68 -86 -44 4
-63 46 -46 101 8 28 8 43 1 50 -18 18 -33 -7 -39 -64 -9 -94 44 -149 123 -127
42 11 53 27 65 88 6 30 19 64 30 74 17 17 22 18 44 7 30 -17 39 -47 26 -92 -6
-19 -10 -35 -10 -36 0 -11 39 0 44 13 18 46 3 113 -30 137 -35 26 -57 28 -95
9z"/>
<path d="M3165 6053 c-3 -27 -9 -57 -11 -69 l-5 -21 -137 24 c-165 28 -152 27
-152 3 0 -11 3 -20 8 -20 4 0 72 -11 152 -25 80 -14 148 -25 151 -25 6 0 29
124 29 159 0 12 -6 21 -14 21 -9 0 -16 -17 -21 -47z"/>
<path d="M6020 5641 c-11 -8 8 -11 71 -11 115 0 170 -20 235 -85 77 -77 110
-180 143 -450 12 -93 25 -143 52 -202 10 -24 19 -45 19 -48 0 -18 88 -140 126
-175 49 -45 158 -100 237 -119 27 -6 92 -14 145 -17 l97 -5 -61 24 c-33 13
-75 33 -92 46 -73 52 -172 210 -255 407 -124 292 -159 359 -236 451 -65 78
-151 140 -231 167 -64 21 -228 32 -250 17z"/>
<path d="M8845 5490 c-3 -5 -1 -10 4 -10 6 0 11 5 11 10 0 6 -2 10 -4 10 -3 0
-8 -4 -11 -10z"/>
<path d="M2070 5355 c0 -8 8 -11 20 -8 11 3 20 7 20 8 0 1 -9 5 -20 8 -12 3
-20 0 -20 -8z"/>
<path d="M3720 5285 c-1 -3 -1 -45 -1 -95 0 -49 0 -128 1 -173 l0 -84 78 -77
c94 -92 158 -139 272 -198 160 -83 287 -118 456 -125 126 -6 254 3 254 16 0 5
-23 3 -52 -2 -112 -22 -316 25 -465 109 -77 43 -221 162 -283 234 -62 72 -130
169 -142 203 -5 15 -13 27 -17 27 -4 0 -25 38 -47 85 -33 72 -53 100 -54 80z"/>
<path d="M8850 5286 c0 -2 7 -7 16 -10 8 -3 12 -2 9 4 -6 10 -25 14 -25 6z"/>
<path d="M2074 5226 c-17 -13 -15 -14 19 -13 42 1 44 3 18 16 -13 7 -24 6 -37
-3z"/>
<path d="M2220 5210 c0 -5 10 -10 23 -10 18 0 19 2 7 10 -19 13 -30 13 -30 0z"/>
<path d="M8800 5200 c0 -5 6 -10 14 -10 8 0 18 5 21 10 3 6 -3 10 -14 10 -12
0 -21 -4 -21 -10z"/>
<path d="M8780 5063 c0 -10 4 -14 8 -8 4 6 11 13 16 18 5 4 2 7 -7 7 -10 0
-17 -8 -17 -17z"/>
<path d="M8825 5070 c-3 -5 -2 -10 4 -10 5 0 13 5 16 10 3 6 2 10 -4 10 -5 0
-13 -4 -16 -10z"/>
<path d="M8779 4978 c-8 -27 -2 -37 27 -50 27 -12 34 -13 34 -3 0 8 -6 15 -12
18 -10 3 -10 7 1 20 9 11 10 17 2 17 -6 0 -11 -5 -11 -12 0 -9 -3 -9 -12 0
-11 11 -27 16 -29 10z"/>
<path d="M8745 4940 c3 -5 8 -10 11 -10 2 0 4 5 4 10 0 6 -5 10 -11 10 -5 0
-7 -4 -4 -10z"/>
<path d="M8754 4888 l-19 -23 23 19 c12 11 22 21 22 23 0 8 -8 2 -26 -19z"/>
<path d="M8717 4843 c-4 -3 -7 -13 -7 -21 0 -18 13 -7 16 13 2 17 1 18 -9 8z"/>
<path d="M8778 4813 c6 -2 18 -2 25 0 6 3 1 5 -13 5 -14 0 -19 -2 -12 -5z"/>
<path d="M8700 4770 c-8 -5 -12 -11 -9 -14 2 -3 11 -1 19 4 8 5 12 11 9 14 -2
3 -11 1 -19 -4z"/>
<path d="M2413 4725 c1 -17 -2 -36 -6 -43 -6 -8 -2 -12 10 -13 16 0 17 -1 1
-7 -10 -4 -14 -12 -10 -18 5 -6 13 -4 25 8 9 10 13 18 8 18 -6 0 -14 19 -20
43 -7 31 -9 34 -8 12z"/>
<path d="M8714 4710 c1 -16 7 -25 19 -26 11 -1 12 0 3 3 -8 2 -17 14 -19 26
-3 18 -4 18 -3 -3z"/>
<path d="M8691 4704 c0 -11 3 -14 6 -6 3 7 2 16 -1 19 -3 4 -6 -2 -5 -13z"/>
<path d="M8690 4636 c0 -17 2 -18 10 -6 7 11 10 5 11 -25 1 -22 1 -46 0 -54
-2 -11 0 -11 12 0 8 8 11 16 6 17 -5 2 -9 23 -9 46 0 31 -4 43 -15 43 -9 0
-15 -9 -15 -21z"/>
<path d="M8682 4578 c1 -21 5 -35 10 -32 11 7 10 35 -2 54 -7 11 -9 5 -8 -22z"/>
<path d="M2415 4569 c-4 -6 -4 -13 -1 -16 3 -4 6 -1 6 6 0 7 5 9 10 6 6 -3 10
-1 10 4 0 14 -17 14 -25 0z"/>
<path d="M2468 4555 c-3 -14 -1 -25 3 -25 5 0 9 11 9 25 0 14 -2 25 -4 25 -2
0 -6 -11 -8 -25z"/>
<path d="M4828 4563 c6 -2 18 -2 25 0 6 3 1 5 -13 5 -14 0 -19 -2 -12 -5z"/>
<path d="M8680 4511 c0 -12 4 -20 9 -16 6 3 14 -3 20 -12 9 -15 10 -12 10 17
0 19 -3 29 -6 22 -4 -10 -8 -10 -19 -1 -11 9 -14 7 -14 -10z"/>
<path d="M2410 4509 c0 -5 5 -7 10 -4 6 3 10 8 10 11 0 2 -4 4 -10 4 -5 0 -10
-5 -10 -11z"/>
<path d="M2463 4475 c-8 -9 -9 -16 -3 -20 14 -9 12 -45 -2 -45 -10 0 -10 -2
-1 -8 8 -5 11 -35 8 -97 -6 -112 -14 -157 -29 -152 -6 3 -10 10 -8 16 1 8 -2
9 -9 5 -9 -5 -10 -2 -6 9 3 10 2 17 -3 17 -6 0 -10 -9 -10 -20 0 -11 5 -20 10
-20 6 0 10 -6 10 -12 0 -9 22 -13 75 -14 41 -1 72 3 69 7 -3 5 1 9 9 9 8 0 21
8 31 19 15 16 15 19 1 31 -13 11 -14 10 -9 -3 3 -10 -3 -19 -18 -27 -22 -11
-23 -11 -3 6 19 16 19 16 -10 9 -16 -3 -33 -11 -36 -17 -4 -6 -9 -5 -12 3 -3
9 -6 10 -6 2 -1 -19 20 -27 30 -12 7 11 9 10 9 -3 0 -10 -4 -18 -9 -18 -21 0
-41 13 -41 26 0 17 -16 18 -26 2 -4 -7 -3 -8 4 -4 7 4 12 2 12 -4 0 -21 -23
-4 -27 19 -2 12 1 20 6 17 5 -3 11 6 14 19 2 14 0 28 -5 31 -4 3 -5 10 -2 16
4 6 6 39 5 74 -2 58 0 63 21 67 l23 4 -22 2 c-22 1 -30 23 -24 69 2 15 -1 15
-16 -3z"/>
<path d="M8676 4454 c-9 -24 -7 -28 9 -14 17 14 20 30 6 30 -5 0 -12 -7 -15
-16z"/>
<path d="M8698 4433 c-27 -29 -29 -64 -2 -42 11 9 14 9 14 0 0 -6 -7 -14 -15
-17 -16 -7 -21 -54 -5 -54 5 0 7 7 4 15 -4 9 1 18 11 21 10 4 15 15 13 29 -1
12 4 30 11 39 26 31 -3 39 -31 9z"/>
<path d="M2413 4375 c0 -22 2 -30 4 -17 2 12 2 30 0 40 -3 9 -5 -1 -4 -23z"/>
<path d="M2417 4313 c-4 -3 -7 -11 -7 -17 0 -6 5 -5 12 2 6 6 9 14 7 17 -3 3
-9 2 -12 -2z"/>
<path d="M8681 4294 c0 -11 3 -14 6 -6 3 7 2 16 -1 19 -3 4 -6 -2 -5 -13z"/>
<path d="M2510 4281 c0 -5 7 -11 15 -15 8 -3 15 -1 15 3 0 5 -7 11 -15 15 -8
3 -15 1 -15 -3z"/>
<path d="M2587 4229 c7 -7 15 -10 18 -7 3 3 -2 9 -12 12 -14 6 -15 5 -6 -5z"/>
<path d="M2608 4156 c-25 -18 -22 -26 6 -26 27 0 44 -16 24 -22 -8 -3 -7 -6 3
-10 10 -4 15 1 16 12 1 10 -5 21 -13 24 -7 3 -11 12 -8 21 7 18 -5 19 -28 1z"/>
<path d="M2467 4109 c7 -7 15 -10 18 -7 3 3 -2 9 -12 12 -14 6 -15 5 -6 -5z"/>
<path d="M2400 4083 c0 -21 3 -24 9 -14 5 8 7 20 4 28 -8 21 -13 15 -13 -14z"/>
<path d="M2560 4102 c0 -12 19 -26 26 -19 2 2 -2 10 -11 17 -9 8 -15 8 -15 2z"/>
<path d="M2460 4075 c0 -8 2 -15 4 -15 2 0 6 7 10 15 3 8 1 15 -4 15 -6 0 -10
-7 -10 -15z"/>
<path d="M2656 4048 c-10 -13 -16 -17 -16 -9 0 8 -3 12 -6 9 -3 -4 0 -17 7
-30 7 -12 12 -32 11 -43 -2 -19 -2 -19 9 -2 8 14 8 22 0 30 -16 16 -14 30 4
23 8 -3 15 -1 15 4 0 6 -5 10 -11 10 -8 0 -8 5 1 15 7 8 10 15 7 15 -3 0 -13
-10 -21 -22z"/>
<path d="M2223 4053 c9 -2 23 -2 30 0 6 3 -1 5 -18 5 -16 0 -22 -2 -12 -5z"/>
<path d="M2420 4049 c0 -5 -4 -8 -9 -4 -6 3 -9 -13 -9 -37 0 -36 2 -39 9 -20
5 13 6 28 3 34 -3 5 3 12 15 15 24 6 28 23 6 23 -8 0 -15 -5 -15 -11z"/>
<path d="M2338 4043 c7 -3 16 -2 19 1 4 3 -2 6 -13 5 -11 0 -14 -3 -6 -6z"/>
<path d="M2463 4009 c0 -23 -6 -45 -13 -49 -9 -6 -9 -9 0 -15 15 -9 30 13 23
32 -3 7 -1 19 5 26 7 8 6 17 -2 30 -12 15 -13 12 -13 -24z"/>
<path d="M2508 4043 c7 -3 16 -2 19 1 4 3 -2 6 -13 5 -11 0 -14 -3 -6 -6z"/>
<path d="M2540 4006 c0 -7 8 -20 18 -27 14 -11 15 -11 5 1 -18 19 -16 28 5 33
13 4 11 5 -5 6 -14 1 -23 -5 -23 -13z"/>
<path d="M2501 3994 c0 -11 3 -14 6 -6 3 7 2 16 -1 19 -3 4 -6 -2 -5 -13z"/>
<path d="M2706 3995 c-3 -9 -6 -22 -5 -28 0 -7 5 -1 10 12 5 13 8 26 5 28 -2
2 -6 -3 -10 -12z"/>
<path d="M8678 3949 c-3 -20 -4 -55 -1 -78 l6 -41 16 33 c10 17 18 48 19 67 0
19 -2 29 -4 23 -9 -20 -22 -15 -26 10 -3 16 -5 13 -10 -14z m19 -71 c-3 -7 -5
-2 -5 12 0 14 2 19 5 13 2 -7 2 -19 0 -25z"/>
<path d="M2586 3957 c3 -10 9 -15 12 -12 3 3 0 11 -7 18 -10 9 -11 8 -5 -6z"/>
<path d="M2265 3950 c-3 -6 1 -7 9 -4 18 7 21 14 7 14 -6 0 -13 -4 -16 -10z"/>
<path d="M2400 3926 c0 -14 5 -28 10 -31 15 -9 12 -51 -5 -65 -19 -16 -10 -30
18 -30 17 0 19 2 8 9 -12 8 -12 12 2 25 21 22 25 20 19 -9 -2 -15 0 -25 7 -25
6 0 10 6 9 13 -2 6 6 12 17 12 11 0 20 -5 20 -12 0 -7 6 -18 13 -24 9 -10 12
-10 12 -1 0 7 -6 12 -12 13 -7 1 -2 5 12 9 15 5 18 8 8 9 -11 1 -15 7 -11 22
4 14 12 19 24 16 11 -3 17 -1 13 4 -3 5 -13 9 -22 10 -11 1 -8 4 8 9 l25 8
-27 1 c-16 1 -28 -3 -28 -8 0 -19 -41 3 -46 25 -8 33 -25 19 -18 -14 l5 -27
-25 30 c-14 17 -24 36 -21 43 2 6 0 12 -5 12 -6 0 -10 -11 -10 -24z m90 -66
c0 -5 -2 -10 -4 -10 -3 0 -8 5 -11 10 -3 6 -1 10 4 10 6 0 11 -4 11 -10z m30
-15 c0 -8 -4 -15 -10 -15 -5 0 -10 7 -10 15 0 8 5 15 10 15 6 0 10 -7 10 -15z"/>
<path d="M2530 3946 c0 -2 7 -6 15 -10 8 -3 15 -1 15 4 0 6 -7 10 -15 10 -8 0
-15 -2 -15 -4z"/>
<path d="M2610 3939 c0 -5 5 -7 10 -4 6 3 10 8 10 11 0 2 -4 4 -10 4 -5 0 -10
-5 -10 -11z"/>
<path d="M2700 3943 c-8 -3 -18 -11 -22 -17 -5 -7 -8 -7 -8 2 0 10 -9 9 -35
-7 -32 -19 -36 -19 -51 -3 -15 15 -16 14 -9 -8 4 -14 12 -26 16 -28 5 -2 9
-10 9 -18 0 -9 -4 -12 -10 -9 -5 3 -10 -1 -10 -9 0 -20 5 -20 24 0 15 14 16
13 17 -8 0 -13 3 -18 5 -12 3 7 17 0 34 -18 31 -31 41 -50 15 -28 -9 7 -19 10
-23 6 -10 -11 27 -36 44 -29 8 3 14 0 14 -7 0 -6 4 -9 9 -6 5 3 11 0 14 -8 4
-9 14 -12 27 -9 19 5 12 15 -59 84 -72 70 -94 99 -75 99 3 0 46 -40 95 -90 48
-49 95 -90 103 -90 8 0 17 -10 19 -22 3 -19 5 -17 6 7 2 28 3 29 11 8 5 -13
15 -23 22 -23 9 0 9 3 -2 10 -8 5 -11 12 -8 16 4 3 2 12 -5 20 -29 33 -37 44
-37 54 0 5 -4 10 -10 10 -5 0 -10 7 -10 16 0 8 -11 30 -25 48 -14 18 -25 37
-25 42 0 5 -9 10 -20 10 -18 0 -18 -2 -5 -23 8 -12 15 -28 15 -35 -1 -7 -10 4
-21 25 -11 21 -17 42 -14 47 7 11 7 11 -15 3z m135 -177 c12 -12 12 -15 -1
-20 -21 -8 -34 1 -27 19 7 19 11 19 28 1z"/>
<path d="M2397 3876 c-4 -10 -5 -21 -2 -24 9 -9 17 6 13 25 -3 17 -4 17 -11
-1z"/>
<path d="M2320 3860 c0 -5 6 -10 14 -10 8 0 18 5 21 10 3 6 -3 10 -14 10 -12
0 -21 -4 -21 -10z"/>
<path d="M2600 3810 c0 -13 38 -32 44 -21 3 4 -6 13 -19 19 -15 7 -25 8 -25 2z"/>
<path d="M2408 3783 c7 -3 16 -2 19 1 4 3 -2 6 -13 5 -11 0 -14 -3 -6 -6z"/>
<path d="M2461 3773 c-1 -17 -6 -21 -18 -17 -14 5 -15 4 -4 -4 8 -6 10 -15 5
-23 -10 -17 -6 -70 7 -83 16 -17 10 -23 -18 -19 -27 3 -27 3 -5 -7 14 -6 20
-15 16 -21 -4 -7 -3 -9 4 -5 17 10 25 -13 11 -32 -8 -9 -1 -6 14 7 31 28 33
33 12 25 -11 -5 -15 0 -14 17 0 13 3 18 6 11 4 -10 8 -10 21 0 12 10 14 10 8
1 -4 -7 -2 -13 3 -13 6 0 11 5 11 10 0 6 4 10 10 10 5 0 6 -8 3 -17 -5 -15 -4
-16 8 -7 25 20 94 2 85 -23 -5 -11 -2 -11 16 2 32 22 45 19 57 -12 8 -21 10
-22 7 -5 -2 12 1 36 7 52 10 25 9 33 -6 47 -18 17 -18 17 -12 -8 4 -16 2 -30
-5 -34 -7 -4 -14 1 -17 14 -3 12 -9 21 -14 21 -4 0 -10 15 -12 33 l-4 32 -1
-35 -2 -36 -70 4 c-47 3 -70 1 -70 -7 0 -6 -4 -11 -9 -11 -5 0 -8 12 -6 26 2
18 -1 22 -8 15 -14 -14 -27 -14 -27 1 0 6 3 9 6 5 12 -11 35 23 29 42 -3 11
-1 22 5 26 5 3 10 -2 10 -12 0 -15 2 -16 10 -3 7 11 12 12 18 4 5 -9 11 -8 20
2 11 12 8 14 -18 14 -17 0 -29 4 -25 9 3 5 1 12 -4 15 -5 3 -12 -2 -16 -12 -7
-16 -8 -15 -15 3 -8 19 -9 19 -9 -2z m6 -55 c-3 -8 -6 -5 -6 6 -1 11 2 17 5
13 3 -3 4 -12 1 -19z m113 -84 c0 -2 -7 -4 -15 -4 -8 0 -15 4 -15 10 0 5 7 7
15 4 8 -4 15 -8 15 -10z m76 -31 c-4 -4 -12 -1 -19 7 -9 10 -9 11 1 6 7 -4 12
-2 13 6 0 11 2 11 6 0 3 -7 2 -16 -1 -19z"/>
<path d="M2400 3750 c0 -19 3 -21 12 -12 9 9 9 15 0 24 -9 9 -12 7 -12 -12z"/>
<path d="M2575 3760 c-2 -3 5 -7 16 -7 10 -1 19 2 19 6 0 9 -29 10 -35 1z"/>
<path d="M2632 3761 c-8 -4 -5 -11 8 -19 16 -10 20 -10 20 2 0 19 -13 27 -28
17z"/>
<path d="M2402 3700 c0 -14 2 -19 5 -12 2 6 2 18 0 25 -3 6 -5 1 -5 -13z"/>
<path d="M2570 3716 c0 -2 8 -10 18 -17 15 -13 16 -12 3 4 -13 16 -21 21 -21
13z"/>
<path d="M2832 3649 c12 -35 18 -37 18 -5 0 13 -6 26 -14 29 -12 5 -13 1 -4
-24z"/>
<path d="M2401 3654 c0 -11 3 -14 6 -6 3 7 2 16 -1 19 -3 4 -6 -2 -5 -13z"/>
<path d="M2737 3653 c-4 -3 -7 -11 -7 -17 0 -6 5 -5 12 2 6 6 9 14 7 17 -3 3
-9 2 -12 -2z"/>
<path d="M2863 3645 c-5 -16 22 -55 39 -55 4 0 -1 9 -12 20 -11 11 -17 26 -14
35 4 8 3 15 0 15 -4 0 -9 -7 -13 -15z"/>
<path d="M2732 3560 c0 -19 2 -27 5 -17 2 9 2 25 0 35 -3 9 -5 1 -5 -18z"/>
<path d="M2860 3574 c0 -13 -3 -14 -14 -5 -12 10 -13 9 -9 -8 3 -11 12 -22 20
-25 8 -3 11 -11 7 -17 -4 -8 -3 -9 5 -5 7 5 8 13 2 23 -4 9 -6 24 -4 34 3 11
3 19 -1 19 -3 0 -6 -7 -6 -16z"/>
<path d="M2966 3517 c3 -10 9 -15 12 -12 3 3 0 11 -7 18 -10 9 -11 8 -5 -6z"/>
<path d="M2628 3513 c6 -2 9 -10 6 -15 -4 -7 -2 -8 5 -4 13 9 5 26 -12 25 -9
0 -8 -2 1 -6z"/>
<path d="M2578 3493 c7 -3 16 -2 19 1 4 3 -2 6 -13 5 -11 0 -14 -3 -6 -6z"/>
<path d="M2830 3490 c0 -5 5 -10 10 -10 6 0 10 5 10 10 0 6 -4 10 -10 10 -5 0
-10 -4 -10 -10z"/>
<path d="M2510 3486 c0 -2 7 -7 16 -10 8 -3 12 -2 9 4 -6 10 -25 14 -25 6z"/>
<path d="M2963 3447 c0 -23 2 -33 5 -22 2 11 8 22 12 25 5 3 3 13 -4 22 -10
14 -12 10 -13 -25z"/>
<path d="M2640 3470 c0 -5 5 -10 10 -10 6 0 10 5 10 10 0 6 -4 10 -10 10 -5 0
-10 -4 -10 -10z"/>
<path d="M2700 3454 c0 -23 2 -26 11 -14 8 12 9 11 5 -6 -7 -24 27 -63 39 -45
3 6 0 11 -8 11 -9 0 -14 11 -14 30 0 20 3 26 9 18 4 -7 8 -8 8 -3 0 6 -5 17
-10 25 -8 12 -10 12 -10 1 0 -11 -3 -11 -15 -1 -13 11 -15 8 -15 -16z"/>
<path d="M2813 3455 c2 -28 0 -30 -30 -29 -18 0 -33 -4 -33 -8 0 -4 5 -8 10
-8 6 0 10 -8 11 -17 0 -16 1 -15 8 2 7 17 8 17 15 -8 8 -35 26 -26 26 14 0 16
5 29 10 29 6 0 10 9 10 21 0 11 -4 18 -9 15 -5 -4 -12 0 -15 6 -3 7 -4 0 -3
-17z"/>
<path d="M2570 3445 c13 -14 26 -23 28 -20 5 5 -36 45 -46 45 -3 0 5 -11 18
-25z"/>
<path d="M2871 3455 c-1 -17 -3 -17 -11 -5 -8 13 -10 13 -10 -1 0 -9 7 -20 16
-23 10 -4 13 -13 9 -25 -5 -17 -2 -19 32 -16 21 2 43 -1 50 -7 19 -15 33 0 32
35 -1 28 -2 29 -7 9 -4 -13 -10 -23 -14 -23 -5 1 -13 1 -19 1 -5 0 -7 4 -4 10
3 6 -1 7 -9 4 -9 -3 -16 -10 -16 -15 0 -18 -17 -8 -28 16 -9 20 -8 26 6 35 15
11 16 11 0 6 -9 -3 -19 0 -22 7 -2 7 -5 3 -5 -8z"/>
<path d="M2689 3408 c-3 -28 1 -64 9 -93 8 -25 9 -20 10 33 0 34 -4 65 -9 68
-5 3 -10 -1 -10 -8z"/>
<path d="M2831 3391 c0 -23 1 -24 8 -6 l8 20 5 -20 c5 -16 6 -15 7 6 1 17 -4
26 -14 26 -10 0 -15 -10 -14 -26z"/>
<path d="M2636 3395 c-3 -8 -1 -15 4 -15 6 0 10 7 10 15 0 8 -2 15 -4 15 -2 0
-6 -7 -10 -15z"/>
<path d="M2636 3343 c7 -37 14 -42 14 -10 0 14 -4 28 -9 32 -6 3 -8 -6 -5 -22z"/>
<path d="M2867 3363 c-10 -19 -17 -64 -9 -59 6 3 12 19 14 36 5 30 3 37 -5 23z"/>
<path d="M2916 3358 c3 -5 10 -6 15 -3 13 9 11 12 -6 12 -8 0 -12 -4 -9 -9z"/>
<path d="M2958 3290 c-2 -39 0 -70 5 -70 4 0 7 32 7 70 0 39 -2 70 -4 70 -2 0
-6 -32 -8 -70z"/>
<path d="M2760 3339 c0 -5 5 -7 10 -4 6 3 10 8 10 11 0 2 -4 4 -10 4 -5 0 -10
-5 -10 -11z"/>
<path d="M2832 3310 c0 -14 2 -19 5 -12 2 6 2 18 0 25 -3 6 -5 1 -5 -13z"/>
<path d="M2827 3250 c3 -11 7 -20 9 -20 2 0 4 9 4 20 0 11 -4 20 -9 20 -5 0
-7 -9 -4 -20z"/>
<path d="M2957 3189 c4 -13 8 -18 11 -10 2 7 -1 18 -6 23 -8 8 -9 4 -5 -13z"/>
<path d="M2855 3141 c3 -5 -5 -12 -17 -14 -18 -3 -17 -5 7 -6 21 -1 26 -4 17
-10 -10 -6 -9 -10 7 -14 12 -3 21 -4 21 -2 0 13 -25 55 -32 55 -5 0 -7 -4 -3
-9z"/>
<path d="M2851 3062 c-1 -12 6 -25 14 -29 21 -7 32 4 17 19 -9 9 -12 9 -13 -2
-1 -8 -5 -4 -9 10 -8 24 -8 24 -9 2z"/>
<path d="M2900 3040 c0 -5 5 -10 11 -10 5 0 7 5 4 10 -3 6 -8 10 -11 10 -2 0
-4 -4 -4 -10z"/>
<path d="M2949 3043 c-1 -5 -1 -11 0 -15 0 -5 -4 -8 -10 -8 -6 0 -17 -7 -25
-15 -14 -13 -14 -15 0 -15 9 0 16 5 16 10 0 6 7 10 15 10 8 0 15 2 15 4 0 2 3
11 6 20 3 9 1 16 -5 16 -6 0 -12 -3 -12 -7z"/>
<path d="M2952 2975 c0 -16 2 -22 5 -12 2 9 2 23 0 30 -3 6 -5 -1 -5 -18z"/>
<path d="M3991 2674 c0 -11 3 -14 6 -6 3 7 2 16 -1 19 -3 4 -6 -2 -5 -13z"/>
<path d="M4031 2658 c0 -10 -7 -18 -14 -18 -15 0 -67 -41 -67 -53 0 -4 9 -7
20 -7 19 0 24 -10 21 -37 -1 -7 5 -13 13 -13 8 0 24 -12 35 -26 23 -30 61 -26
61 7 0 27 17 24 22 -5 4 -20 0 -25 -25 -30 -23 -5 -28 -9 -19 -18 8 -8 15 -8
24 0 9 7 19 7 28 2 8 -6 127 -9 265 -9 138 1 241 3 230 6 -11 2 -27 7 -35 11
-8 3 -19 7 -25 7 -5 1 -23 8 -40 15 -16 7 -53 14 -82 16 -42 2 -53 0 -56 -14
-3 -9 -4 3 -2 28 1 25 1 35 -2 23 -6 -32 -20 -28 -28 7 -4 17 -10 28 -15 25
-5 -3 -16 2 -24 11 -15 14 -16 14 -16 -1 0 -9 -4 -14 -9 -11 -5 3 -11 -3 -14
-14 -3 -13 0 -20 9 -20 8 0 11 -6 7 -16 -3 -9 -13 -14 -24 -11 -12 3 -19 0
-19 -10 0 -9 6 -13 15 -10 8 4 17 2 20 -3 4 -6 -17 -10 -49 -10 -31 0 -56 4
-56 9 0 15 18 23 22 10 3 -10 38 -2 38 10 0 3 -16 7 -36 9 -20 1 -41 5 -48 9
-6 4 -18 8 -26 8 -8 0 -14 8 -14 18 1 9 -2 17 -7 17 -5 0 -9 -8 -9 -17 0 -14
-2 -15 -9 -5 -5 8 -25 14 -46 15 -21 1 -33 3 -26 5 19 6 12 22 -10 22 -11 0
-17 5 -14 10 4 7 13 7 25 0 21 -11 70 -3 70 11 0 5 11 9 25 9 19 0 25 -5 25
-21 0 -11 5 -17 10 -14 12 7 12 16 1 33 -12 20 -87 25 -105 7 -8 -8 -17 -11
-20 -6 -4 5 -1 11 5 13 6 2 9 13 6 23 -4 17 -5 17 -6 3z m49 -38 c0 -5 -5 -10
-11 -10 -5 0 -7 5 -4 10 3 6 8 10 11 10 2 0 4 -4 4 -10z m259 -78 c-1 -15 -2
-15 -6 1 -2 9 -9 14 -15 11 -7 -4 -8 -2 -4 5 10 15 26 4 25 -17z m-178 -36 c5
3 9 -2 9 -10 0 -8 -4 -17 -9 -20 -9 -6 -22 17 -20 37 0 8 2 8 6 -1 2 -6 9 -10
14 -6z m154 -5 c3 -5 1 -12 -4 -15 -5 -3 -11 1 -15 9 -6 16 9 21 19 6z m45
-11 c0 -5 -4 -10 -10 -10 -5 0 -10 5 -10 10 0 6 5 10 10 10 6 0 10 -4 10 -10z
m137 -6 c-3 -3 -12 -4 -19 -1 -8 3 -5 6 6 6 11 1 17 -2 13 -5z"/>
<path d="M3361 2634 c0 -11 3 -14 6 -6 3 7 2 16 -1 19 -3 4 -6 -2 -5 -13z"/>
<path d="M3602 2636 c-22 -11 -25 -27 -6 -33 6 -2 16 7 22 19 9 19 11 20 11 5
1 -21 -21 -47 -40 -47 -9 0 -10 -3 -3 -10 14 -14 44 -2 44 16 0 8 4 14 9 14
10 0 3 38 -8 43 -3 2 -16 -1 -29 -7z"/>
<path d="M3920 2622 c6 -13 14 -21 18 -18 3 4 -2 14 -12 24 -18 16 -18 16 -6
-6z"/>
<path d="M3381 2617 c-15 -19 -4 -47 20 -47 12 0 19 7 19 20 0 22 15 27 26 8
5 -7 3 -8 -5 -3 -9 5 -11 -1 -7 -25 6 -41 16 -51 16 -16 0 16 4 25 10 21 6 -3
10 0 10 8 0 8 7 17 15 21 8 3 15 9 15 14 0 12 -73 9 -82 -3 -5 -6 -11 -5 -16
3 -7 10 -11 10 -21 -1z m25 -34 c-7 -7 -26 7 -26 19 0 6 6 6 15 -2 9 -7 13
-15 11 -17z"/>
<path d="M3537 2623 c-22 -6 -57 -34 -57 -46 0 -4 5 -5 11 -1 7 4 26 7 43 8
32 1 36 5 36 31 0 15 -2 16 -33 8z"/>
<path d="M3762 2618 c-6 -6 -29 -12 -52 -13 -43 -2 -70 -18 -51 -29 6 -4 11
-3 11 2 0 5 12 8 27 6 15 -1 33 2 40 8 10 8 13 7 13 -3 0 -11 2 -11 10 1 8 12
10 12 10 1 0 -11 3 -11 15 -1 12 10 15 10 15 -1 0 -10 3 -10 12 -1 9 9 18 4
40 -18 l28 -29 20 21 c25 27 25 31 2 51 -18 17 -75 21 -66 5 8 -12 -11 -9 -24
4 -9 9 -12 9 -12 -1 0 -10 -3 -11 -13 -2 -10 8 -17 7 -25 -1z m107 -17 c7 -5
12 -13 10 -18 -2 -6 -13 -2 -23 8 -20 19 -12 26 13 10z"/>
<path d="M4165 2620 c3 -5 21 -10 38 -9 27 0 29 2 12 9 -28 12 -57 12 -50 0z"/>
<path d="M4100 2590 c0 -5 5 -10 10 -10 6 0 10 5 10 10 0 6 -4 10 -10 10 -5 0
-10 -4 -10 -10z"/>
<path d="M7331 2564 c0 -11 3 -14 6 -6 3 7 2 16 -1 19 -3 4 -6 -2 -5 -13z"/>
<path d="M3476 2552 c-8 -13 10 -51 24 -53 6 -1 15 -2 21 -3 6 0 17 -9 24 -20
11 -15 32 -19 114 -23 72 -4 101 -2 101 6 0 6 5 11 11 11 5 0 7 -4 4 -10 -3
-5 1 -10 9 -10 26 0 18 19 -10 26 -14 4 -45 4 -69 1 -31 -3 -48 0 -56 9 -9 11
-8 15 4 20 9 3 21 3 27 -1 17 -10 11 11 -7 26 -13 11 -17 11 -20 2 -7 -20 -23
-15 -32 9 -8 22 -8 22 -24 -7 -9 -17 -16 -24 -17 -17 0 6 -7 12 -16 12 -9 0
-12 -5 -8 -12 5 -8 2 -9 -12 -4 -10 4 -25 9 -33 10 -8 2 -17 11 -21 21 -4 13
-9 15 -14 7z m128 -58 c16 -6 12 -24 -5 -24 -6 0 -8 4 -5 9 4 5 0 12 -6 14 -7
3 -10 6 -6 6 3 1 13 -2 22 -5z"/>
<path d="M3849 2552 c-2 -8 -23 -13 -52 -14 -27 0 -47 -5 -47 -12 0 -7 -3 -7
-8 -1 -11 15 -52 17 -46 2 2 -7 19 -12 37 -12 17 0 39 -5 47 -11 22 -17 50
-25 50 -14 0 5 7 16 16 24 8 9 14 24 12 34 -3 11 -6 13 -9 4z m-39 -31 c0 -6
-4 -13 -10 -16 -5 -3 -10 1 -10 9 0 9 5 16 10 16 6 0 10 -4 10 -9z m24 -6 c-4
-8 -8 -15 -10 -15 -2 0 -4 7 -4 15 0 8 4 15 10 15 5 0 7 -7 4 -15z"/>
<path d="M6820 2551 c-8 -6 -18 -7 -23 -4 -5 3 -8 0 -5 -7 2 -8 -14 -31 -36
-52 -36 -34 -38 -38 -19 -38 13 0 30 11 39 26 10 15 23 23 32 19 8 -3 20 -1
27 5 14 12 68 -7 59 -21 -6 -10 28 -29 53 -29 12 0 0 17 -39 55 -59 58 -64 60
-88 46z m30 -25 c0 -2 -7 -6 -15 -10 -8 -3 -15 -1 -15 4 0 6 7 10 15 10 8 0
15 -2 15 -4z"/>
<path d="M7015 2551 c-3 -6 -10 -9 -15 -6 -5 3 -11 1 -15 -5 -3 -5 -1 -10 4
-10 6 0 11 -7 11 -15 0 -25 17 -17 24 11 7 28 2 42 -9 25z"/>
<path d="M7470 2547 c0 -17 -8 -18 -70 -15 -39 2 -70 0 -70 -4 0 -20 36 -38
76 -38 26 0 43 -4 39 -10 -3 -5 -12 -7 -20 -3 -9 3 -15 -1 -15 -11 0 -17 19
-20 59 -9 23 6 23 7 5 14 -18 7 -18 8 2 8 12 1 35 8 50 17 25 13 26 15 6 11
-18 -4 -22 -2 -18 9 3 8 -1 14 -9 14 -8 0 -19 8 -24 18 -10 16 -10 16 -11 -1z
m0 -37 c-33 -11 -108 -12 -113 -2 -3 4 27 8 67 8 46 1 62 -1 46 -6z"/>
<path d="M6695 2540 c24 -6 26 -8 8 -9 -13 0 -23 -5 -23 -10 0 -4 -31 -7 -69
-7 -64 2 -68 1 -64 -18 2 -12 1 -15 -3 -8 -3 6 -15 12 -27 12 -17 0 -22 -6
-22 -25 0 -25 0 -25 93 -25 102 0 141 12 121 36 -7 8 -7 14 -1 14 5 0 12 9 15
19 4 15 11 18 27 14 15 -4 21 -2 17 4 -4 6 -28 10 -54 10 -42 0 -44 -1 -18 -7z
m-110 -39 c3 -5 1 -12 -5 -16 -5 -3 -10 1 -10 9 0 18 6 21 15 7z m30 -1 c3 -5
1 -10 -4 -10 -6 0 -11 5 -11 10 0 6 2 10 4 10 3 0 8 -4 11 -10z m79 -19 c3 -5
0 -11 -7 -14 -8 -3 -14 1 -14 9 0 16 13 19 21 5z"/>
<path d="M6900 2540 c8 -5 24 -10 35 -11 l20 0 -20 -9 c-14 -6 -15 -9 -5 -9 8
-1 20 -11 25 -23 7 -16 18 -22 33 -21 12 2 22 -2 22 -7 0 -6 5 -10 10 -10 17
0 11 15 -12 29 -16 10 -23 10 -26 2 -4 -13 -22 -5 -22 10 0 6 4 8 9 4 16 -10
22 13 9 35 -9 15 -23 20 -53 20 -29 0 -36 -3 -25 -10z"/>
<path d="M7032 2517 c-5 -20 -5 -38 2 -49 14 -23 22 -23 29 2 3 14 14 20 31
20 14 0 26 5 26 10 0 6 5 10 11 10 5 0 7 -4 4 -10 -3 -5 1 -10 9 -10 9 0 16 5
16 10 0 7 6 7 20 0 14 -7 20 -7 20 0 0 5 -7 10 -15 10 -8 0 -15 6 -15 14 0 8
-7 17 -16 20 -12 4 -15 2 -10 -9 3 -8 1 -15 -4 -15 -6 0 -10 6 -10 13 0 8 -16
13 -45 15 -42 1 -45 0 -53 -31z m85 7 c-3 -3 -12 -4 -19 -1 -8 3 -5 6 6 6 11
1 17 -2 13 -5z m-42 -21 c-11 -3 -23 -10 -27 -17 -5 -7 -8 -5 -8 7 0 12 7 17
28 16 21 -1 22 -2 7 -6z"/>
<path d="M3878 2521 c-10 -10 -18 -23 -18 -30 0 -6 -12 -17 -27 -23 l-28 -12
33 -4 c40 -4 62 3 62 19 0 9 -4 9 -14 0 -9 -8 -16 -8 -20 -2 -9 14 45 36 82
33 43 -4 41 -22 -3 -22 -24 0 -35 -5 -35 -15 0 -12 14 -15 70 -14 39 1 70 4
70 7 0 3 -19 22 -42 44 -32 30 -49 38 -77 37 -21 0 -44 -8 -53 -18z m82 -7 c0
-2 -7 -4 -15 -4 -8 0 -15 4 -15 10 0 5 7 7 15 4 8 -4 15 -8 15 -10z"/>
<path d="M4415 2530 c3 -5 13 -10 21 -10 8 0 14 5 14 10 0 6 -9 10 -21 10 -11
0 -17 -4 -14 -10z"/>
<path d="M7243 2523 c3 -15 0 -23 -9 -23 -8 0 -11 6 -7 17 4 11 3 14 -5 9 -7
-4 -12 -14 -12 -22 0 -17 50 -19 50 -1 0 6 5 4 11 -5 15 -27 29 -22 28 10 l-1
27 -8 -25 c-8 -25 -8 -25 -9 -2 -1 14 -5 21 -12 16 -6 -3 -16 0 -21 7 -7 10
-8 8 -5 -8z"/>
<path d="M7310 2523 c0 -12 5 -25 10 -28 13 -8 13 15 0 35 -8 12 -10 11 -10
-7z"/>
<path d="M6730 2509 c0 -5 5 -7 10 -4 6 3 10 8 10 11 0 2 -4 4 -10 4 -5 0 -10
-5 -10 -11z"/>
<path d="M6787 2467 c-4 -10 8 -14 50 -16 42 -2 54 1 51 11 -6 19 -94 23 -101
5z"/>
<path d="M7071 2464 c0 -11 3 -14 6 -6 3 7 2 16 -1 19 -3 4 -6 -2 -5 -13z"/>
<path d="M7386 2465 c-3 -8 -1 -15 4 -15 6 0 10 7 10 15 0 8 -2 15 -4 15 -2 0
-6 -7 -10 -15z"/>
</g>
</svg>
